HIERARCHY
ROOT hip
{
  OFFSET 0 0 0
  CHANNELS 6 Xposition Yposition Zposition Zrotation Yrotation Xrotation
  JOINT abdomen
  {
    OFFSET 0 20.6881 -0.73152
    CHANNELS 3 Zrotation Xrotation Yrotation
    JOINT chest
    {
      OFFSET 0 11.7043 -0.48768
      CHANNELS 3 Zrotation Xrotation Yrotation
      JOINT neck
      {
        OFFSET 0 22.1894 -2.19456
        CHANNELS 3 Zrotation Xrotation Yrotation
        JOINT head
        {
          OFFSET -0.24384 7.07133 1.2192
          CHANNELS 3 Zrotation Xrotation Yrotation
          JOINT leftEye
          {
            OFFSET 4.14528 8.04674 8.04672
            CHANNELS 3 Zrotation Xrotation Yrotation
            End Site
            {
              OFFSET 1 0 0
            }
          }
          JOINT rightEye
          {
            OFFSET -3.6576 8.04674 8.04672
            CHANNELS 3 Zrotation Xrotation Yrotation
            End Site
            {
              OFFSET 1 0 0
            }
          }
        }
      }
      JOINT rCollar
      {
        OFFSET -2.68224 19.2634 -4.8768
        CHANNELS 3 Zrotation Xrotation Yrotation
        JOINT rShldr
        {
          OFFSET -8.77824 -1.95073 1.46304
          CHANNELS 3 Zrotation Xrotation Yrotation
          JOINT rForeArm
          {
            OFFSET -28.1742 -1.7115 0.48768
            CHANNELS 3 Zrotation Xrotation Yrotation
            JOINT rHand
            {
              OFFSET -22.5879 0.773209 7.07136
              CHANNELS 3 Zrotation Xrotation Yrotation
              JOINT rThumb1
              {
                OFFSET -1.2192 -0.487915 3.41376
                CHANNELS 3 Zrotation Xrotation Yrotation
                JOINT rThumb2
                {
                  OFFSET -3.37035 -0.52449 3.41376
                  CHANNELS 3 Zrotation Xrotation Yrotation
                  End Site
                  {
                    OFFSET -1.78271 -1.18214 1.43049
                  }
                }
              }
              JOINT rIndex1
              {
                OFFSET -7.75947 0.938293 5.60832
                CHANNELS 3 Zrotation Xrotation Yrotation
                JOINT rIndex2
                {
                  OFFSET -2.54057 -0.884171 1.56538
                  CHANNELS 3 Zrotation Xrotation Yrotation
                  End Site
                  {
                    OFFSET -1.62519 -0.234802 1.16502
                  }
                }
              }
              JOINT rMid1
              {
                OFFSET -8.24714 1.18213 3.41376
                CHANNELS 3 Zrotation Xrotation Yrotation
                JOINT rMid2
                {
                  OFFSET -3.10165 -0.590103 1.0647
                  CHANNELS 3 Zrotation Xrotation Yrotation
                  End Site
                  {
                    OFFSET -2.48547 -0.328903 0.83742
                  }
                }
              }
              JOINT rRing1
              {
                OFFSET -8.82822 0.546677 1.51678
                CHANNELS 3 Zrotation Xrotation Yrotation
                JOINT rRing2
                {
                  OFFSET -2.60934 -0.819778 -0.0198488
                  CHANNELS 3 Zrotation Xrotation Yrotation
                  End Site
                  {
                    OFFSET -2.33842 -0.294052 0.168128
                  }
                }
              }
              JOINT rPinky1
              {
                OFFSET -8.27202 -0.0477905 -0.4584
                CHANNELS 3 Zrotation Xrotation Yrotation
                JOINT rPinky2
                {
                  OFFSET -1.82734 -0.647385 -0.700984
                  CHANNELS 3 Zrotation Xrotation Yrotation
                  End Site
                  {
                    OFFSET -1.69225 -0.51767 -0.607171
                  }
                }
              }
            }
          }
        }
      }
      JOINT lCollar
      {
        OFFSET 2.68224 19.2634 -4.8768
        CHANNELS 3 Zrotation Xrotation Yrotation
        JOINT lShldr
        {
          OFFSET 8.77824 -1.95073 1.46304
          CHANNELS 3 Zrotation Xrotation Yrotation
          JOINT lForeArm
          {
            OFFSET 28.1742 -1.7115 0.48768
            CHANNELS 3 Zrotation Xrotation Yrotation
            JOINT lHand
            {
              OFFSET 22.5879 0.773209 7.07136
              CHANNELS 3 Zrotation Xrotation Yrotation
              JOINT lThumb1
              {
                OFFSET 1.2192 -0.487915 3.41376
                CHANNELS 3 Zrotation Xrotation Yrotation
                JOINT lThumb2
                {
                  OFFSET 3.37035 -0.52449 3.41376
                  CHANNELS 3 Zrotation Xrotation Yrotation
                  End Site
                  {
                    OFFSET 1.78271 -1.18214 1.43049
                  }
                }
              }
              JOINT lIndex1
              {
                OFFSET 7.75947 0.938293 5.60832
                CHANNELS 3 Zrotation Xrotation Yrotation
                JOINT lIndex2
                {
                  OFFSET 2.54057 -0.884171 1.56538
                  CHANNELS 3 Zrotation Xrotation Yrotation
                  End Site
                  {
                    OFFSET 1.62519 -0.234802 1.16502
                  }
                }
              }
              JOINT lMid1
              {
                OFFSET 8.24714 1.18213 3.41376
                CHANNELS 3 Zrotation Xrotation Yrotation
                JOINT lMid2
                {
                  OFFSET 3.10165 -0.590103 1.0647
                  CHANNELS 3 Zrotation Xrotation Yrotation
                  End Site
                  {
                    OFFSET 2.48547 -0.328903 0.83742
                  }
                }
              }
              JOINT lRing1
              {
                OFFSET 8.82822 0.546677 1.51678
                CHANNELS 3 Zrotation Xrotation Yrotation
                JOINT lRing2
                {
                  OFFSET 2.60934 -0.819778 -0.0198488
                  CHANNELS 3 Zrotation Xrotation Yrotation
                  End Site
                  {
                    OFFSET 2.33842 -0.294052 0.168128
                  }
                }
              }
              JOINT lPinky1
              {
                OFFSET 8.27202 -0.0477905 -0.4584
                CHANNELS 3 Zrotation Xrotation Yrotation
                JOINT lPinky2
                {
                  OFFSET 1.82734 -0.647385 -0.700984
                  CHANNELS 3 Zrotation Xrotation Yrotation
                  End Site
                  {
                    OFFSET 1.69225 -0.51767 -0.607171
                  }
                }
              }
            }
          }
        }
      }
    }
  }
  JOINT rButtock
  {
    OFFSET -8.77824 4.35084 1.2192
    CHANNELS 3 Zrotation Xrotation Yrotation
    JOINT rThigh
    {
      OFFSET 0 -1.70687 -2.19456
      CHANNELS 3 Zrotation Xrotation Yrotation
      JOINT rShin
      {
        OFFSET 0 -36.8199 0.73152
        CHANNELS 3 Zrotation Xrotation Yrotation
        JOINT rFoot
        {
          OFFSET 0.73152 -45.1104 -5.12064
          CHANNELS 3 Zrotation Xrotation Yrotation
          End Site
          {
            OFFSET -1.1221 -3.69964 12.103
          }
        }
      }
    }
  }
  JOINT lButtock
  {
    OFFSET 8.77824 4.35084 1.2192
    CHANNELS 3 Zrotation Xrotation Yrotation
    JOINT lThigh
    {
      OFFSET 0 -1.70687 -2.19456
      CHANNELS 3 Zrotation Xrotation Yrotation
      JOINT lShin
      {
        OFFSET 0 -36.8199 0.73152
        CHANNELS 3 Zrotation Xrotation Yrotation
        JOINT lFoot
        {
          OFFSET -0.73152 -45.1104 -5.12064
          CHANNELS 3 Zrotation Xrotation Yrotation
          End Site
          {
            OFFSET 1.1221 -3.69964 12.103
          }
        }
      }
    }
  }
}
MOTION
Frames:	9
Frame Time:	0.00833333
0.813753 80.4879 -10.0092 0.1192 36.4922 0.557 2.39388 5.96236 33.1423 -7.01813 -2.02419 9.39483 -8.46372 2.64236 -1.9044 11.4419 -16.218 -0.154442 -0.0 0.0 0.0 -0.0 0.0 0.0 1.03874e-13 -1.5714e-12 -3.33075e-13 -7.83603 44.9501 71.4396 -27.9336 -30.2291 67.6117 -0.37822 17.2233 2.49702 -5.53835e-10 2.32298e-09 -1.39544e-09 -9.72037e-10 4.04541e-09 -2.40055e-09 -5.53834e-10 2.32298e-09 -1.39546e-09 7.73091 5.47488 0.417314 -5.53838e-10 2.32298e-09 -1.39544e-09 2.90554 0.965183 0.102902 -5.53836e-10 2.32298e-09 -1.39544e-09 10.2786 0.731801 0.0259123 -5.53836e-10 2.32298e-09 -1.39543e-09 2.22167 -0.733487 -0.20892 1.03994e-13 -1.5714e-12 -3.33365e-13 -38.4712 -17.094 27.6223 27.9994 -30.6088 -68.2218 0.00428051 1.86824 -0.262658 1.07174e-09 -1.88715e-09 -1.65294e-09 1.84771e-09 -3.25461e-09 -2.86115e-09 1.07173e-09 -1.88715e-09 -1.65292e-09 -7.73091 5.47488 -0.417314 1.07174e-09 -1.88715e-09 -1.65294e-09 -2.90554 0.965183 -0.102902 1.07173e-09 -1.88715e-09 -1.65295e-09 -10.2786 0.731801 -0.0259123 1.07174e-09 -1.88715e-09 -1.65295e-09 -2.22167 -0.733487 0.20892 -2.03217e-16 0.0 -3.88251e-19 -5.93985 8.04412 8.20897 0.0476618 17.288 0.864328 -19.6202 -26.2996 -35.8594 2.03217e-16 0.0 3.88251e-19 11.0068 -25.4769 -19.3735 0.101997 20.7346 -0.363258 0.0310068 1.74411 -6.18936
0.815287 80.5312 -10.0176 0.1153 35.7723 0.535 2.54827 6.05566 32.5607 -6.86828 -2.01747 9.23447 -8.84911 2.50126 -1.86827 11.6345 -15.9238 0.0268173 -0.0 0.0 0.0 -0.0 0.0 0.0 5.04588e-14 -9.00429e-13 -2.74391e-13 -7.57202 45.0418 70.9035 -27.901 -30.0502 67.3261 -0.373218 17.1134 2.48007 -3.38521e-11 1.4088e-09 -1.35786e-09 -7.34398e-11 2.4622e-09 -2.34317e-09 -3.38508e-11 1.40879e-09 -1.35787e-09 7.73091 5.47488 0.417314 -3.38541e-11 1.4088e-09 -1.35785e-09 2.90554 0.965183 0.102902 -3.38517e-11 1.4088e-09 -1.35785e-09 10.2786 0.731801 0.0259123 -3.38529e-11 1.4088e-09 -1.35785e-09 2.22167 -0.733487 -0.20892 5.05489e-14 -9.00427e-13 -2.74668e-13 -38.3611 -17.4752 27.766 27.993 -30.571 -68.1615 0.00380552 1.75531 -0.24677 6.49069e-10 -7.51717e-10 -1.21344e-09 1.11878e-09 -1.29497e-09 -2.10205e-09 6.4906e-10 -7.51715e-10 -1.21341e-09 -7.73091 5.47488 -0.417314 6.4907e-10 -7.51716e-10 -1.21344e-09 -2.90554 0.965183 -0.102902 6.49062e-10 -7.51716e-10 -1.21344e-09 -10.2786 0.731801 -0.0259123 6.49066e-10 -7.51716e-10 -1.21345e-09 -2.22167 -0.733487 0.20892 -2.03217e-16 0.0 -3.88251e-19 -6.10974 7.9381 8.59269 0.0476632 17.2802 0.853797 -19.3218 -26.0577 -35.6149 2.03217e-16 0.0 3.88251e-19 11.1916 -25.1118 -19.125 0.1018 20.6801 -0.36097 0.0312735 1.52601 -5.74422
0.839573 80.5767 -10.0357 0.2361 35.0119 0.5762 2.68806 6.14534 31.978 -6.73141 -2.02161 9.07286 -9.1975 2.39132 -1.83258 11.8249 -15.6643 0.197383 -0.0 0.0 0.0 -0.0 0.0 0.0 -4.25685e-15 -1.99466e-13 -1.97695e-13 -7.23493 45.1174 70.2879 -27.8652 -29.8609 67.0258 -0.369517 17.0314 2.46746 4.97392e-10 3.5034e-10 -1.25194e-09 8.45326e-10 6.28368e-10 -2.16825e-09 4.97393e-10 3.50339e-10 -1.25195e-09 7.73091 5.47488 0.417314 4.9739e-10 3.5034e-10 -1.25194e-09 2.90554 0.965183 0.102902 4.97393e-10 3.50341e-10 -1.25194e-09 10.2786 0.731801 0.0259123 4.9739e-10 3.5034e-10 -1.25193e-09 2.22167 -0.733487 -0.20892 -4.20303e-15 -1.99465e-13 -1.97957e-13 -38.2138 -17.827 27.8837 27.9867 -30.5341 -68.1023 0.00321105 1.60724 -0.225943 2.0791e-10 3.19094e-10 -7.38695e-10 3.57978e-10 5.52753e-10 -1.28177e-09 2.07902e-10 3.19094e-10 -7.38667e-10 -7.73091 5.47488 -0.417314 2.07911e-10 3.19094e-10 -7.38693e-10 -2.90554 0.965183 -0.102902 2.07905e-10 3.19093e-10 -7.38697e-10 -10.2786 0.731801 -0.0259123 2.07907e-10 3.19095e-10 -7.38703e-10 -2.22167 -0.733487 0.20892 -2.03217e-16 0.0 -3.88251e-19 -6.29611 7.82652 8.98719 0.047498 17.2748 0.842919 -19.0154 -25.8011 -35.3671 2.03217e-16 0.0 3.88251e-19 11.3675 -24.7264 -18.8736 0.101545 20.6195 -0.35861 0.0356395 1.30751 -5.28512
0.854997 80.6176 -10.0511 0.3194 34.2678 0.6065 2.76612 6.15101 31.4863 -6.68265 -2.03967 8.93452 -9.33073 2.36852 -1.80855 11.9303 -15.4732 0.276981 -0.0 0.0 0.0 -0.0 0.0 0.0 -3.69878e-14 2.4932e-13 -1.28663e-13 -6.59562 45.2298 69.4786 -27.8289 -29.6747 66.73 -0.368416 17.0071 2.46371 7.78056e-10 -3.4691e-10 -1.07451e-09 1.33208e-09 -5.81409e-10 -1.86629e-09 7.78058e-10 -3.46911e-10 -1.07452e-09 7.73091 5.47488 0.417314 7.78055e-10 -3.4691e-10 -1.07451e-09 2.90554 0.965183 0.102902 7.78059e-10 -3.4691e-10 -1.07451e-09 10.2786 0.731801 0.0259123 7.78055e-10 -3.4691e-10 -1.0745e-09 2.22167 -0.733487 -0.20892 -3.69625e-14 2.4932e-13 -1.28912e-13 -37.9319 -18.0619 27.8789 27.9789 -30.4883 -68.0286 0.00253458 1.43737 -0.202052 -8.9303e-11 9.16843e-10 -3.64876e-10 -1.54547e-10 1.58381e-09 -6.35305e-10 -8.931e-11 9.16842e-10 -3.64848e-10 -7.73091 5.47488 -0.417314 -8.93022e-11 9.16843e-10 -3.64873e-10 -2.90554 0.965183 -0.102902 -8.93064e-11 9.16842e-10 -3.64877e-10 -10.2786 0.731801 -0.0259123 -8.93058e-11 9.16844e-10 -3.64883e-10 -2.22167 -0.733487 0.20892 -2.03217e-16 0.0 -3.88251e-19 -6.52955 7.673 9.3842 0.0466529 17.2766 0.831709 -18.701 -25.5367 -35.1092 2.03217e-16 0.0 3.88251e-19 11.5073 -24.3491 -18.6167 0.101158 20.5446 -0.3561 0.0457473 1.10414 -4.8092
0.854129 80.6487 -10.0419 0.1724 33.5706 0.4607 2.74533 6.01747 31.1277 -6.77054 -2.07733 8.83004 -9.12287 2.48355 -1.79452 11.906 -15.3851 0.229879 -0.0 0.0 0.0 -0.0 0.0 0.0 -3.66826e-14 3.28667e-13 -5.61442e-14 -5.50754 45.4074 68.4039 -27.7921 -29.4902 66.4349 -0.37156 17.0777 2.47456 6.76932e-10 -5.56842e-10 -7.49171e-10 1.16103e-09 -9.49966e-10 -1.30377e-09 6.76935e-10 -5.56842e-10 -7.49176e-10 7.73091 5.47488 0.417314 6.76931e-10 -5.56842e-10 -7.49169e-10 2.90554 0.965183 0.102902 6.76937e-10 -5.56842e-10 -7.49168e-10 10.2786 0.731801 0.0259123 6.76931e-10 -5.56843e-10 -7.49157e-10 2.22167 -0.733487 -0.20892 -3.66772e-14 3.28668e-13 -5.63815e-14 -37.4413 -18.1327 27.7063 27.9686 -30.4284 -67.9324 0.00176163 1.2302 -0.172918 -1.85117e-10 7.46617e-10 -9.97149e-11 -3.1968e-10 1.28879e-09 -1.75455e-10 -1.85122e-10 7.46615e-10 -9.96898e-11 -7.73091 5.47488 -0.417314 -1.85115e-10 7.46617e-10 -9.97122e-11 -2.90554 0.965183 -0.102902 -1.8512e-10 7.46616e-10 -9.97162e-11 -10.2786 0.731801 -0.0259123 -1.85118e-10 7.46619e-10 -9.97203e-11 -2.22167 -0.733487 0.20892 -2.03217e-16 0.0 -3.88251e-19 -6.83423 7.46149 9.79739 0.0448364 17.2861 0.820235 -18.3886 -25.2658 -34.8557 2.03217e-16 0.0 3.88251e-19 11.5862 -23.9928 -18.359 0.100627 20.4533 -0.353488 0.0622965 0.923268 -4.31162
0.847847 80.6864 -10.0432 0.0377 32.8233 0.3238 2.6568 5.79797 30.8478 -6.94563 -2.13136 8.74498 -8.6952 2.69464 -1.78608 11.8047 -15.3735 0.103943 -0.0 0.0 0.0 -0.0 0.0 0.0 -1.73739e-14 2.03072e-13 2.75565e-14 -4.11568 45.6025 67.1271 -27.7534 -29.3017 66.1334 -0.377881 17.2175 2.49609 3.54128e-10 -5.46151e-10 -3.028e-10 6.08413e-10 -9.38437e-10 -5.29431e-10 3.54132e-10 -5.4615e-10 -3.02808e-10 7.73091 5.47488 0.417314 3.54126e-10 -5.46152e-10 -3.028e-10 2.90554 0.965183 0.102902 3.54137e-10 -5.46151e-10 -3.028e-10 10.2786 0.731801 0.0259123 3.5413e-10 -5.46154e-10 -3.02788e-10 2.22167 -0.733487 -0.20892 -1.73866e-14 2.03075e-13 2.73298e-14 -36.8102 -18.0936 27.4229 27.9568 -30.3603 -67.8234 0.00105297 0.984964 -0.138439 -1.70875e-10 8.8249e-11 1.19882e-10 -2.94971e-10 1.50722e-10 2.06486e-10 -1.70879e-10 8.82476e-11 1.19901e-10 -7.73091 5.47488 -0.417314 -1.70873e-10 8.82488e-11 1.19883e-10 -2.90554 0.965183 -0.102902 -1.7088e-10 8.82483e-11 1.19879e-10 -10.2786 0.731801 -0.0259123 -1.70875e-10 8.82526e-11 1.19877e-10 -2.22167 -0.733487 0.20892 -2.03217e-16 0.0 -3.88251e-19 -7.18696 7.21373 10.2258 0.0423801 17.301 0.808466 -18.0751 -24.9846 -34.6049 2.03217e-16 0.0 3.88251e-19 11.6244 -23.6405 -18.1001 0.0999923 20.3498 -0.350792 0.0840766 0.755619 -3.7952
0.891612 80.7391 -10.0951 0.4541 32.0288 0.6104 2.55484 5.5744 30.5939 -7.13602 -2.19145 8.66637 -8.24036 2.91908 -1.79025 11.6904 -15.3807 -0.0555191 -0.0 0.0 0.0 -0.0 0.0 0.0 6.59685e-15 1.30005e-14 9.15776e-14 -2.63046 45.7521 65.739 -27.7142 -29.1165 65.8388 -0.384536 17.3621 2.51841 -1.52147e-11 -3.9857e-10 1.12875e-10 -2.49261e-11 -6.89597e-10 1.92861e-10 -1.521e-11 -3.98567e-10 1.12862e-10 7.73091 5.47488 0.417314 -1.52168e-11 -3.98571e-10 1.12873e-10 2.90554 0.965183 0.102902 -1.52029e-11 -3.9857e-10 1.12871e-10 10.2786 0.731801 0.0259123 -1.52124e-11 -3.98574e-10 1.12884e-10 2.22167 -0.733487 -0.20892 6.5711e-15 1.30044e-14 9.13629e-14 -36.1564 -18.0102 27.0854 27.9445 -30.2909 -67.7127 0.000576421 0.73713 -0.103601 -1.07341e-10 -6.04579e-10 2.63998e-10 -1.85261e-10 -1.04649e-09 4.57811e-10 -1.07342e-10 -6.0458e-10 2.6401e-10 -7.73091 5.47488 -0.417314 -1.07338e-10 -6.04579e-10 2.63998e-10 -2.90554 0.965183 -0.102902 -1.07346e-10 -6.04579e-10 2.63994e-10 -10.2786 0.731801 -0.0259123 -1.07338e-10 -6.04574e-10 2.63993e-10 -2.22167 -0.733487 0.20892 -2.03217e-16 0.0 -3.88251e-19 -7.54736 6.95017 10.6392 0.0397081 17.3217 0.796266 -17.7414 -24.6926 -34.3263 2.03217e-16 0.0 3.88251e-19 11.6625 -23.2758 -17.8294 0.0992625 20.2361 -0.3479 0.109663 0.591765 -3.26859
0.950327 80.8071 -10.1567 0.8897 31.0274 0.9621 2.49458 5.42896 30.3123 -7.2698 -2.24726 8.58123 -7.95088 3.07416 -1.81401 11.6275 -15.3492 -0.203088 -0.0 0.0 0.0 -0.0 0.0 0.0 2.08884e-14 -1.01085e-13 1.05058e-13 -1.27037 45.8003 64.342 -27.6764 -28.9429 65.5642 -0.388499 17.4469 2.53152 -2.55956e-10 -1.97831e-10 3.46124e-10 -4.38141e-10 -3.46219e-10 5.99221e-10 -2.5595e-10 -1.97827e-10 3.46108e-10 7.73091 5.47488 0.417314 -2.55958e-10 -1.97832e-10 3.46121e-10 2.90554 0.965183 0.102902 -2.55943e-10 -1.97831e-10 3.46118e-10 10.2786 0.731801 0.0259123 -2.55957e-10 -1.97833e-10 3.4613e-10 2.22167 -0.733487 -0.20892 2.08577e-14 -1.0108e-13 1.04859e-13 -35.5993 -17.9487 26.7499 27.9331 -30.2271 -67.6111 0.000334419 0.522168 -0.073388 -5.52756e-11 -8.78185e-10 3.02716e-10 -9.53908e-11 -1.51894e-09 5.25813e-10 -5.52765e-11 -8.78186e-10 3.02725e-10 -7.73091 5.47488 -0.417314 -5.52726e-11 -8.78185e-10 3.02716e-10 -2.90554 0.965183 -0.102902 -5.52815e-11 -8.78184e-10 3.02712e-10 -10.2786 0.731801 -0.0259123 -5.52715e-11 -8.78179e-10 3.02712e-10 -2.22167 -0.733487 0.20892 -2.03217e-16 0.0 -3.88251e-19 -7.87621 6.69115 11.0076 0.0372456 17.3483 0.783496 -17.3689 -24.3886 -33.9894 2.03217e-16 0.0 3.88251e-19 11.7405 -22.882 -17.5368 0.0984461 20.1144 -0.344698 0.137869 0.422273 -2.74044
0.950519 80.875 -10.14 0.9359 29.9533 0.9161 2.48745 5.3875 30.0184 -7.33522 -2.29989 8.49418 -7.88846 3.1341 -1.87253 11.6349 -15.2461 -0.351701 -0.0 0.0 0.0 -0.0 0.0 0.0 2.10684e-14 -1.024e-13 3.40372e-14 -0.0663353 45.7321 62.9227 -27.6404 -28.7815 65.3081 -0.390016 17.4775 2.5363 -2.99165e-10 9.86079e-11 3.0009e-10 -5.13238e-10 1.66483e-10 5.2205e-10 -2.9916e-10 9.86119e-11 3.00074e-10 7.73091 5.47488 0.417314 -2.99168e-10 9.86074e-11 3.00087e-10 2.90554 0.965183 0.102902 -2.99155e-10 9.8608e-11 3.00084e-10 10.2786 0.731801 0.0259123 -2.99178e-10 9.86098e-11 3.00094e-10 2.22167 -0.733487 -0.20892 2.10454e-14 -1.02396e-13 3.38679e-14 -35.1664 -17.9062 26.4139 27.9226 -30.1689 -67.5184 0.000180809 0.34486 -0.0484684 -9.95295e-12 -5.11432e-10 1.53168e-10 -1.72149e-11 -8.84268e-10 2.66688e-10 -9.9546e-12 -5.11433e-10 1.53179e-10 -7.73091 5.47488 -0.417314 -9.95009e-12 -5.11432e-10 1.5317e-10 -2.90554 0.965183 -0.102902 -9.95896e-12 -5.11431e-10 1.53166e-10 -10.2786 0.731801 -0.0259123 -9.94898e-12 -5.11425e-10 1.53166e-10 -2.22167 -0.733487 0.20892 -2.03217e-16 0.0 -3.88251e-19 -8.17915 6.42275 11.2905 0.0349567 17.396 0.769784 -16.9265 -24.0584 -33.5501 2.03217e-16 0.0 3.88251e-19 11.8676 -22.4469 -17.2076 0.0974266 19.9712 -0.340721 0.169005 0.249018 -2.2069
